<svg width="172" height="64" viewBox="0 0 172 64" fill="none" xmlns="http://www.w3.org/2000/svg">
<g clip-path="url(#clip0)">
<path d="M23.4317 27.0431C23.4312 29.3417 22.7545 31.5894 21.4859 33.5062C20.2173 35.4231 18.4129 36.9244 16.2973 37.8233C14.1817 38.7221 11.8485 38.9788 9.58806 38.5613C7.32767 38.1438 5.24002 37.0707 3.58508 35.4754C7.74568 34.8567 11.6039 32.9377 14.6076 29.9929C17.6112 27.0482 19.6063 23.2287 20.3073 19.0812C22.3197 21.2436 23.4364 24.0891 23.4317 27.0431Z" fill="#14A198"/>
<path d="M20.3072 19.0812C19.6062 23.2287 17.6111 27.0482 14.6075 29.9929C11.6038 32.9377 7.74559 34.8567 3.585 35.4754C2.44956 34.3843 1.54663 33.0748 0.930526 31.6257C0.314427 30.1766 -0.00209566 28.6177 1.04415e-05 27.0431V26.9138C3.20452 26.4093 6.2375 25.1303 8.83574 23.188C11.434 21.2456 13.519 18.6986 14.9098 15.7679C16.9796 16.3545 18.8474 17.501 20.3072 19.0812Z" fill="#26CAC1"/>
<path d="M14.9098 15.768C13.519 18.6987 11.434 21.2457 8.83573 23.188C6.23749 25.1304 3.20451 26.4093 0 26.9139L0 15.3174H6.22568C6.70764 15.4311 7.19891 15.501 7.69347 15.5261H8.10101H8.18053C8.81768 15.5266 9.45268 15.4521 10.0724 15.3041H11.7291C12.8056 15.3114 13.876 15.4675 14.9098 15.768Z" fill="#FA7E0A"/>
<path d="M14.3631 12.8025C13.4061 13.966 12.1441 14.8402 10.7185 15.3272C10.4717 15.4119 10.2206 15.4838 9.96639 15.5426H0V0.0297546C2.0973 4.98403 5.90633 9.01886 10.7318 11.3977C11.898 11.973 13.1133 12.4431 14.3631 12.8025Z" fill="#FD9941"/>
<path d="M16.2053 7.66034C16.2081 9.53652 15.5567 11.355 14.3631 12.8026C13.1088 12.444 11.889 11.9738 10.7185 11.3977C5.89806 9.01638 2.09402 4.98186 0 0.0298197L0 0H10.7318C12.3285 0.547462 13.7143 1.58001 14.6956 2.95339C15.6769 4.32677 16.2048 5.97239 16.2053 7.66034Z" fill="#FCB600"/>
<path d="M103.348 11.908V38.2453H98.3286V35.8068C98.1928 35.9525 98.1199 36.0288 98.0503 36.1083C96.9187 37.4821 95.3202 38.3905 93.5608 38.6595C91.9233 38.9278 90.2429 38.6783 88.7539 37.946C87.2649 37.2137 86.0415 36.035 85.2544 34.5742C84.5225 33.2069 84.0921 31.6986 83.992 30.151C83.8176 28.4584 83.9477 26.7482 84.3763 25.1015C85.0887 22.5337 86.5167 20.4927 89.015 19.4126C91.4469 18.3589 93.8988 18.3921 96.2512 19.7439C96.9766 20.182 97.6129 20.753 98.1265 21.4271C98.1678 21.4847 98.2023 21.547 98.2292 21.6126L98.3286 21.553V11.908H103.348ZM98.3253 28.7329C98.3253 27.6925 98.3253 26.6488 98.3253 25.6084C98.3177 25.4162 98.2531 25.2305 98.1398 25.075C97.5821 24.3759 96.8461 23.8401 96.0093 23.5244C93.299 22.4111 90.4927 23.584 89.4888 26.2479C89.0851 27.3917 88.9713 28.6177 89.1574 29.8163C89.5252 32.6989 91.5629 34.4549 94.4421 34.2694C95.1632 34.2282 95.8671 34.0337 96.507 33.6989C97.1469 33.3641 97.7081 32.8966 98.153 32.3278C98.2551 32.1881 98.3117 32.0204 98.3154 31.8474C98.332 30.8136 98.3253 29.7766 98.3253 28.7329Z" fill="#42556D"/>
<path d="M57.1908 38.252H52.1579V36.2938C52.103 36.3233 52.0509 36.3577 52.0022 36.3965C50.9043 37.6325 49.3924 38.4243 47.7512 38.6231C46.3133 38.8418 44.8786 38.8384 43.5069 38.2652C41.7111 37.5098 40.303 36.3535 39.7364 34.4053C39.317 32.9757 39.3506 31.4514 39.8325 30.0416C40.409 28.3187 41.731 27.3546 43.3479 26.7283C45.4489 26.066 47.7115 26.129 49.7724 26.9073C50.5668 27.2276 51.2839 27.7133 51.8763 28.332C51.9402 28.4122 51.9958 28.4988 52.042 28.5904L52.1381 28.5242C52.1381 28.4248 52.1381 28.3254 52.1381 28.226C52.1381 27.5633 52.1381 26.8708 52.1381 26.1949C52.1583 25.6597 52.0273 25.1297 51.76 24.6655C51.4928 24.2014 51.1002 23.822 50.6272 23.5708C49.9557 23.1861 49.2005 22.9712 48.4272 22.9446C47.3738 22.8764 46.3175 23.0211 45.3213 23.37C44.3251 23.719 43.4094 24.265 42.6289 24.9756L42.4102 25.181C41.7476 24.0181 41.1114 22.8617 40.4554 21.7087C40.6045 21.5795 40.7337 21.4635 40.8695 21.3542C42.5505 19.9822 44.5865 19.1158 46.7407 18.856C48.8082 18.5909 50.8591 18.6406 52.8405 19.3662C54.2188 19.8698 55.4315 20.6153 56.2167 21.9108C56.7453 22.8006 57.0542 23.8035 57.1179 24.8365C57.1709 25.5422 57.1809 26.2512 57.1809 26.9603C57.1809 30.5961 57.1809 34.2319 57.1809 37.8677L57.1908 38.252ZM52.1513 32.4935C52.143 32.3998 52.143 32.3055 52.1513 32.2119C52.3368 31.2974 51.82 30.7805 51.1209 30.3498C50.9533 30.2436 50.7783 30.1495 50.5974 30.0682C49.6942 29.6817 48.7107 29.5203 47.7314 29.5977C46.9343 29.6264 46.1643 29.8943 45.5214 30.3663C45.0894 30.6825 44.7632 31.122 44.5857 31.627C44.4083 32.1321 44.388 32.6791 44.5274 33.1959C44.7825 34.1899 45.4916 34.7432 46.3928 35.101C47.1929 35.3811 48.0484 35.4651 48.8877 35.3462C49.9256 35.2907 50.9154 34.8908 51.7007 34.2098C51.859 34.0925 51.9835 33.9354 52.0615 33.7544C52.1395 33.5734 52.1682 33.375 52.1447 33.1793C52.132 32.9508 52.1342 32.7217 52.1513 32.4935Z" fill="#42556D"/>
<path d="M67.1802 19.1641V21.5994C67.2962 21.5033 67.3558 21.4602 67.4088 21.4072C68.5513 20.2676 69.9713 19.4457 71.5285 19.0227C73.0858 18.5997 74.7264 18.5902 76.2885 18.9951C78.4454 19.6313 79.6316 21.1222 80.0192 23.3024C80.112 23.8563 80.1553 24.4173 80.1485 24.9789C80.1485 29.2729 80.1485 33.567 80.1485 37.861V38.2586H75.1156V37.8941C75.1156 34.1634 75.1156 30.4326 75.1156 26.7018C75.117 26.2647 75.068 25.8289 74.9698 25.403C74.8509 24.821 74.5486 24.2924 74.1074 23.8947C73.6662 23.497 73.1091 23.2511 72.5179 23.1931C71.5842 23.0222 70.6218 23.103 69.7297 23.4274C68.8376 23.7518 68.0479 24.3079 67.442 25.0386C67.2721 25.2169 67.1793 25.455 67.1835 25.7012C67.1835 29.7434 67.1835 33.7868 67.1835 37.8312V38.252H66.3287C65.0796 38.252 63.8272 38.252 62.5781 38.252C62.2467 38.252 62.1838 38.146 62.1838 37.8478C62.1838 33.2401 62.1838 28.6335 62.1838 24.028C62.1838 22.5171 62.1838 21.0063 62.1838 19.4954C62.1838 19.2138 62.2567 19.1243 62.5516 19.1276C63.9796 19.1276 65.4076 19.1276 66.8356 19.1276L67.1802 19.1641Z" fill="#42556D"/>
<path d="M26.3936 19.1773H31.3636V21.7551C33.0765 19.9725 34.9784 18.7731 37.47 18.6936V23.4482C36.9597 23.4482 36.4528 23.4217 35.9492 23.4482C34.4816 23.5188 33.0759 24.0602 31.9401 24.9922C31.747 25.139 31.5927 25.3307 31.4905 25.5507C31.3883 25.7707 31.3413 26.0123 31.3536 26.2545C31.3801 30.1079 31.3536 33.9646 31.3536 37.8179V38.2421H26.3837L26.3936 19.1773Z" fill="#42556D"/>
<path d="M171.96 52.8537C171.904 53.1154 171.861 53.3838 171.791 53.6422C171.622 54.271 171.295 54.8465 170.843 55.3147C170.39 55.783 169.826 56.1287 169.203 56.3194C168.161 56.7089 167.051 56.8884 165.939 56.8475C164.827 56.8066 163.734 56.546 162.723 56.0808C162.028 55.7939 161.417 55.3361 160.947 54.7499C160.476 54.1637 160.162 53.4681 160.032 52.7278C160.028 52.6593 160.028 52.5908 160.032 52.5223L161.384 52.191C161.414 52.3302 161.434 52.4494 161.46 52.5687C161.579 53.1169 161.828 53.6284 162.187 54.0594C162.546 54.4903 163.003 54.8281 163.521 55.0438C165.089 55.7778 166.882 55.867 168.514 55.2923C169.016 55.1559 169.47 54.8799 169.822 54.4964C170.174 54.1129 170.409 53.6375 170.502 53.1254C170.612 52.6537 170.565 52.159 170.369 51.7164C170.172 51.2739 169.836 50.9077 169.412 50.6735C168.663 50.2328 167.818 50.0871 166.983 49.9015C165.807 49.6398 164.631 49.378 163.455 49.103C163.183 49.032 162.918 48.9378 162.663 48.8214C160.37 47.8705 160.221 45.7466 160.874 44.1828C161.087 43.6919 161.399 43.2504 161.79 42.886C162.182 42.5216 162.645 42.2423 163.15 42.0656C164.064 41.6899 165.045 41.5061 166.033 41.5255C167.02 41.5449 167.994 41.767 168.892 42.1782C169.529 42.4525 170.097 42.8646 170.555 43.3848C171.013 43.905 171.351 44.5204 171.543 45.1867C171.609 45.4054 171.566 45.4849 171.347 45.518C171.016 45.5909 170.684 45.6903 170.353 45.7798C170.32 45.7102 170.297 45.6671 170.28 45.6207C169.816 44.0138 168.68 43.159 167.103 42.8376C166.007 42.5908 164.862 42.6773 163.816 43.0861C162.411 43.6493 161.709 44.9746 162.08 46.3165C162.146 46.5979 162.279 46.8592 162.468 47.0783C162.656 47.2974 162.895 47.468 163.163 47.5756C163.911 47.8555 164.676 48.0889 165.453 48.2747C166.609 48.5696 167.795 48.775 168.938 49.1096C169.573 49.3068 170.175 49.5947 170.727 49.9645C171.063 50.1892 171.343 50.4863 171.548 50.8338C171.754 51.1812 171.879 51.5703 171.914 51.9723C171.929 52.0535 171.951 52.1333 171.98 52.2109L171.96 52.8537Z" fill="#42556D"/>
<path d="M69.8873 53.3904L69.7945 53.5097C69.2008 54.4801 68.3753 55.2879 67.3921 55.8605C66.409 56.433 65.299 56.7523 64.1619 56.7898C63.0254 56.9029 61.8784 56.7406 60.8178 56.3167C59.7572 55.8928 58.8143 55.2198 58.0688 54.3546C56.9597 53.0747 56.3255 51.4518 56.273 49.759C56.1309 48.1608 56.4776 46.5571 57.267 45.1602C57.8307 44.1483 58.638 43.2933 59.6158 42.6724C60.5936 42.0516 61.711 41.6847 62.8665 41.605C65.1858 41.3797 67.2168 42.0291 68.8668 43.7089C69.2512 44.0999 69.556 44.5638 69.937 45.0343V41.9463H71.375V42.3439C71.375 47.1813 71.3352 52.0154 71.375 56.8528C71.4181 60.726 68.8569 63.0089 66.1234 63.6782C63.8548 64.2968 61.435 64.0167 59.3676 62.8962C58.1774 62.2328 57.2519 61.1798 56.7468 59.9143L57.976 59.0826L58.1052 59.3212C58.477 60.1654 59.059 60.9002 59.7957 61.4553C60.5324 62.0105 61.3992 62.3674 62.3131 62.492C63.8903 62.7637 65.4376 62.6809 66.8822 61.9288C67.8224 61.4963 68.6155 60.7981 69.1637 59.9202C69.7118 59.0424 69.991 58.0233 69.9668 56.9886C69.9867 55.8952 69.9668 54.8019 69.9668 53.7085C69.9668 53.6058 69.9668 53.5064 69.9503 53.407L69.8873 53.3904ZM63.2839 42.8309C61.2297 42.9237 59.308 44.0071 58.208 46.3728C57.6383 47.636 57.4739 49.0447 57.7375 50.4051C58.1516 52.794 59.4571 54.4838 61.7863 55.226C64.1918 55.9946 66.3819 55.501 68.1777 53.7018C69.7316 52.1446 70.1855 50.1964 69.8542 48.0692C69.387 44.9978 66.8523 42.8276 63.2839 42.8309Z" fill="#42556D"/>
<path d="M125.219 53.3838C125.16 53.4733 125.097 53.5627 125.037 53.6555C124.448 54.5647 123.652 55.3218 122.715 55.8653C121.777 56.4089 120.725 56.7234 119.643 56.7833C118.561 56.9061 117.466 56.7815 116.44 56.4187C115.413 56.0559 114.483 55.4645 113.719 54.6893C112.522 53.4759 111.788 51.8815 111.645 50.1832C111.451 48.7297 111.658 47.2509 112.241 45.9057C113.401 43.3346 115.415 41.8867 118.205 41.5984C119.31 41.4496 120.434 41.5658 121.485 41.9374C122.536 42.309 123.483 42.9253 124.248 43.7355C124.623 44.1198 124.911 44.5705 125.289 45.0343V41.9397H126.72V42.3439C126.72 47.2211 126.68 52.0983 126.72 56.9721C126.76 58.4586 126.301 59.9157 125.418 61.1116C124.534 62.3075 123.276 63.1736 121.843 63.5722C119.658 64.2553 117.298 64.1066 115.216 63.1547C113.888 62.5572 112.821 61.4976 112.215 60.1728C112.112 59.964 112.132 59.8414 112.34 59.7188C112.672 59.5234 112.98 59.2947 113.334 59.0562C113.394 59.1622 113.447 59.245 113.49 59.3345C114.461 61.3622 116.141 62.3165 118.311 62.5451C119.537 62.7065 120.783 62.5348 121.919 62.0481C124.106 61.0541 125.276 59.3577 125.295 56.9257C125.295 55.7462 125.295 54.57 125.295 53.3938L125.219 53.3838ZM112.983 49.3018C113.006 49.5503 113.02 49.9148 113.073 50.2759C113.404 52.5389 114.574 54.2221 116.717 55.0802C118.861 55.9384 121.025 55.7131 122.91 54.2453C124.971 52.6317 125.61 50.425 125.17 47.9103C124.374 43.3611 119.239 41.4328 115.601 43.8979C113.745 45.1536 113.013 47.0057 112.983 49.3018Z" fill="#42556D"/>
<path d="M105.774 44.9879V33.5272C106.221 33.5272 106.652 33.5272 107.082 33.5272C107.119 33.5272 107.175 33.6233 107.185 33.6829C107.195 33.7766 107.195 33.871 107.185 33.9646V56.0344C107.185 56.4784 107.185 56.4784 106.751 56.4784H105.78V53.344C105.694 53.4136 105.651 53.4335 105.631 53.4699C105.034 54.4552 104.199 55.2749 103.203 55.8537C102.206 56.4326 101.081 56.7522 99.929 56.7832C97.4175 56.9323 95.2904 56.0808 93.6967 54.1127C92.7468 52.9172 92.1922 51.456 92.1096 49.9313C91.9242 48.2199 92.3023 46.4948 93.1864 45.0177C93.7569 44.0403 94.5585 43.2177 95.5209 42.6221C96.4832 42.0265 97.5771 41.6762 98.7064 41.6017C101.059 41.383 103.11 42.059 104.773 43.7819C104.95 43.9731 105.116 44.1745 105.27 44.3849C105.422 44.587 105.562 44.8024 105.704 45.0144L105.774 44.9879ZM93.4614 49.335C93.4879 49.61 93.4946 50.0175 93.5608 50.4151C94.3726 55.3121 99.697 56.8164 103.057 54.4938C105.376 52.8868 106.128 50.5675 105.644 47.8672C104.829 43.3379 99.6805 41.4261 96.0359 43.9277C94.2169 45.1834 93.4946 47.0488 93.4614 49.335Z" fill="#42556D"/>
<path d="M145.762 49.3018C145.57 49.3018 145.43 49.3217 145.305 49.3217H133.045C132.495 49.3217 132.495 49.3217 132.525 49.8584C132.589 51.0528 133.004 52.2017 133.719 53.1604C134.434 54.1191 135.417 54.8447 136.544 55.2458C138.963 56.0874 142.604 55.5043 144.065 52.0783C144.138 51.906 144.214 51.8398 144.417 51.9027C144.728 51.9988 145.056 52.0551 145.411 52.138C145.045 53.2266 144.415 54.2078 143.578 54.994C142.334 56.1118 140.734 56.7517 139.062 56.7998C137.203 56.953 135.356 56.3913 133.897 55.2293C133.115 54.6247 132.469 53.8635 131.999 52.9945C131.529 52.1256 131.245 51.168 131.167 50.1831C130.931 47.8472 131.468 45.7267 133.078 43.9641C134.346 42.5634 136.11 41.7123 137.995 41.5917C138.956 41.4801 139.929 41.5723 140.852 41.8624C141.775 42.1524 142.626 42.6337 143.35 43.2749C144.662 44.4621 145.488 46.0934 145.669 47.8539C145.725 48.321 145.729 48.8015 145.762 49.3018ZM132.509 48.2084H144.32C144.297 48.0096 144.281 47.8373 144.251 47.6683C143.92 45.9388 143.148 44.5074 141.6 43.593C138.469 41.7508 134.178 43.3147 132.909 46.7605C132.741 47.2144 132.648 47.7114 132.509 48.2084Z" fill="#42556D"/>
<path d="M77.9222 46.1641L76.5969 45.8163C76.7938 44.6337 77.441 43.5733 78.4026 42.8575C79.7876 41.8005 81.3846 41.4725 83.0876 41.5752C83.87 41.6105 84.6398 41.7856 85.3605 42.0921C86.1501 42.4194 86.8373 42.9527 87.3502 43.6364C87.8631 44.3201 88.1829 45.129 88.2762 45.9786C88.3315 46.3915 88.357 46.8078 88.3525 47.2244C88.3525 50.1732 88.3525 53.1221 88.3525 56.0709C88.3525 56.4818 88.3525 56.4851 87.9482 56.4851H87.0006V53.7317L86.9344 53.7118C86.8747 53.7914 86.8151 53.8676 86.7588 53.9471C85.8039 55.1942 84.4717 56.0995 82.9606 56.5282C81.4495 56.9568 79.8403 56.8859 78.3728 56.326C77.0773 55.776 76.1695 54.8616 75.868 53.4534C75.4107 51.3163 76.4378 49.4377 78.4855 48.5928C79.3852 48.2278 80.3473 48.041 81.3183 48.0428C83.081 48.0428 84.8404 48.0428 86.603 48.0428H86.9675C87.3286 45.0608 85.8741 42.9171 82.806 42.8078C81.8761 42.7566 80.9484 42.9412 80.109 43.3445C79.5906 43.5831 79.132 43.9345 78.7669 44.373C78.4017 44.8116 78.1392 45.3262 77.9984 45.8792C77.9785 45.9786 77.9553 46.0548 77.9222 46.1641ZM86.9774 49.2389C86.9205 49.2283 86.863 49.2216 86.8051 49.219C84.9828 49.219 83.1605 49.2024 81.3382 49.219C80.4485 49.2096 79.5701 49.419 78.7803 49.8287C78.1662 50.1298 77.6752 50.6343 77.3907 51.2564C77.1062 51.8784 77.0458 52.5798 77.2198 53.2414C77.508 54.3513 78.2933 54.9974 79.3337 55.3519C80.4614 55.7203 81.6742 55.7388 82.8126 55.4049C85.4831 54.6859 87.3817 52.5257 86.9774 49.2389Z" fill="#42556D"/>
<path d="M147.239 41.9199C148.233 41.9199 149.138 41.9199 150.056 41.9199C150.351 41.9199 150.45 41.8503 150.447 41.5422C150.43 39.9982 150.447 38.4575 150.447 36.9035V36.506H151.861V41.8967H157.295V43.1094H151.861V43.4838C151.861 46.4226 151.861 49.3615 151.861 52.3004C151.859 52.6856 151.91 53.0693 152.014 53.4402C152.491 55.0969 153.955 55.6303 155.327 55.4282C155.707 55.3674 156.077 55.2559 156.427 55.0969C156.77 54.9268 157.101 54.7365 157.421 54.527C157.58 54.8583 157.752 55.1896 157.892 55.521C157.915 55.574 157.855 55.6932 157.799 55.7396C157.045 56.3351 156.136 56.6995 155.18 56.7889C154.224 56.8783 153.262 56.6887 152.411 56.2433C151.89 55.9432 151.447 55.5247 151.117 55.0217C150.787 54.5187 150.58 53.9452 150.513 53.3474C150.462 52.9764 150.438 52.6021 150.443 52.2275C150.443 49.3295 150.443 46.4326 150.443 43.5368C150.443 43.1325 150.443 43.1325 150.032 43.1325C149.198 43.1325 148.376 43.1325 147.528 43.1325C147.316 43.1325 147.226 43.0696 147.239 42.8476C147.249 42.5527 147.239 42.2545 147.239 41.9199Z" fill="#42556D"/>
</g>
<defs>
<clipPath id="clip0">
<rect width="171.98" height="64" fill="white"/>
</clipPath>
</defs>
</svg>
