<svg width="18" height="17" viewBox="0 0 18 17" fill="none" xmlns="http://www.w3.org/2000/svg">
<path d="M8.57536 0.683261C8.77096 0.368601 9.22896 0.368601 9.42456 0.683261L11.908 4.6774C11.9768 4.78811 12.0862 4.86755 12.2127 4.89881L16.7788 6.02637C17.1385 6.1152 17.28 6.55074 17.0412 6.83404L14.01 10.4301C13.9259 10.5298 13.8842 10.6583 13.8936 10.7883L14.2322 15.4794C14.2588 15.8489 13.8884 16.1181 13.5451 15.9785L9.18826 14.2069C9.06756 14.1578 8.93236 14.1578 8.81166 14.2069L4.45484 15.9785C4.11161 16.1181 3.74111 15.8489 3.76779 15.4794L4.1064 10.7883C4.11579 10.6583 4.07402 10.5298 3.99 10.4301L0.958754 6.83404C0.719954 6.55074 0.861474 6.1152 1.22118 6.02637L5.78723 4.89881C5.91379 4.86755 6.02314 4.78811 6.09198 4.6774L8.57536 0.683261Z" fill="#FD9941"/>
</svg>
