<svg width="25" height="24" viewBox="0 0 25 24" fill="none" xmlns="http://www.w3.org/2000/svg">
<path fill-rule="evenodd" clip-rule="evenodd" d="M16.7368 10.7369C16.7368 13.5273 14.4747 15.7895 11.6842 15.7895C8.89372 15.7895 6.63157 13.5273 6.63157 10.7369C6.63157 7.94636 8.89372 5.68421 11.6842 5.68421C14.4747 5.68421 16.7368 7.94636 16.7368 10.7369ZM15.3223 16.4079C14.2729 17.0825 13.0243 17.4737 11.6842 17.4737C7.96355 17.4737 4.94736 14.4575 4.94736 10.7369C4.94736 7.01619 7.96355 4 11.6842 4C15.4049 4 18.4211 7.01619 18.4211 10.7369C18.4211 12.5085 17.7372 14.1203 16.6191 15.323L19.8586 18.5625C20.1875 18.8913 20.1875 19.4245 19.8586 19.7534C19.5298 20.0822 18.9966 20.0822 18.6677 19.7534L15.3223 16.4079Z" fill="#AEB4B9"/>
</svg>
