<svg width="24" height="24" viewBox="0 0 24 24" fill="none" xmlns="http://www.w3.org/2000/svg">
<path fill-rule="evenodd" clip-rule="evenodd" d="M4.84211 5.99991C4.37703 5.99991 4 6.37694 4 6.84201C4 7.30711 4.37703 7.68412 4.84211 7.68412H6.70328L8.52766 15.3465C7.85457 15.5671 7.36842 16.2004 7.36842 16.9473C7.36842 17.8775 8.12244 18.6315 9.05263 18.6315C9.98282 18.6315 10.7368 17.8775 10.7368 16.9473C10.7368 16.8019 10.7184 16.6608 10.6838 16.5262H16.6846C16.65 16.6608 16.6316 16.8019 16.6316 16.9473C16.6316 17.8775 17.3856 18.6315 18.3158 18.6315C19.246 18.6315 20 17.8775 20 16.9473C20 16.313 19.6493 15.7606 19.1313 15.4733C19.0377 15.1102 18.708 14.842 18.3158 14.842H10.1389L8.18762 6.64697C8.09735 6.26762 7.7584 5.99991 7.36842 5.99991H4.84211ZM10.9667 7.68412C10.4209 7.68412 10.0193 8.19536 10.1485 8.72564L11.1747 12.9362C11.2666 13.3133 11.6045 13.5789 11.9928 13.5789H17.9019C18.2902 13.5789 18.6281 13.3133 18.7201 12.9362L19.7462 8.72564C19.8755 8.19536 19.4739 7.68412 18.928 7.68412H10.9667Z" fill="#FD9941"/>
</svg>
