<svg width="24" height="24" viewBox="0 0 24 24" fill="none" xmlns="http://www.w3.org/2000/svg">
<path fill-rule="evenodd" clip-rule="evenodd" d="M17.9301 10.1156L15.5213 11.5063C15.6545 12.4584 15.394 13.4304 14.8027 14.1884L16.1934 16.5972C17.984 14.9671 18.6658 12.4227 17.9301 10.1156ZM13.8844 17.9303L12.4936 15.5215C11.5415 15.6547 10.5695 15.3943 9.8115 14.8028L7.40274 16.1936C9.03287 17.9841 11.5773 18.6659 13.8844 17.9303ZM16.597 7.80656L14.1882 9.19726C13.4303 8.60589 12.4583 8.3454 11.5061 8.47862L10.1154 6.06979C12.4224 5.33421 14.9668 6.01597 16.597 7.80656ZM7.80632 7.40289C6.01579 9.03311 5.33402 11.5775 6.06961 13.8846L8.47839 12.4939C8.34525 11.5418 8.60574 10.5697 9.19711 9.81173L7.80632 7.40289ZM15.9992 18.9271C19.8249 16.7183 21.1357 11.8264 18.927 8.00075C16.7182 4.17502 11.8263 2.86425 8.00051 5.07301C4.17485 7.28176 2.86406 12.1737 5.07283 15.9994C7.28161 19.8251 12.1735 21.1359 15.9992 18.9271ZM12.8886 13.5394C13.7388 13.0485 14.0301 11.9615 13.5392 11.1113C13.0484 10.2612 11.9613 9.96984 11.1111 10.4607C10.261 10.9515 9.96969 12.0387 10.4605 12.8888C10.9514 13.739 12.0385 14.0302 12.8886 13.5394Z" fill="#FD9941"/>
</svg>
