<svg width="24" height="20" viewBox="0 0 24 20" fill="none" xmlns="http://www.w3.org/2000/svg">
<path d="M7.55015 19.7502C16.6045 19.7502 21.5583 12.247 21.5583 5.74212C21.5583 5.53117 21.5536 5.31557 21.5442 5.10462C22.5079 4.40772 23.3395 3.54451 24 2.55554C23.1025 2.95484 22.1497 3.21562 21.1739 3.32896C22.2013 2.71316 22.9706 1.74571 23.3391 0.60601C22.3726 1.1788 21.3156 1.58285 20.2134 1.80086C19.4708 1.01181 18.489 0.48936 17.4197 0.314295C16.3504 0.13923 15.2532 0.321295 14.2978 0.83234C13.3423 1.34339 12.5818 2.15495 12.1339 3.14156C11.6859 4.12816 11.5754 5.23487 11.8195 6.29057C9.8625 6.19232 7.94795 5.68397 6.2 4.79837C4.45202 3.91272 2.9097 2.66968 1.67297 1.14976C1.0444 2.23349 0.852055 3.51592 1.13503 4.73632C1.418 5.95677 2.15507 7.02372 3.1964 7.72022C2.41463 7.69542 1.64998 7.48492 0.965625 7.10617V7.16711C0.964925 8.30441 1.3581 9.40681 2.07831 10.287C2.79852 11.1672 3.80133 11.7708 4.91625 11.9952C4.19206 12.1934 3.43198 12.2223 2.69484 12.0796C3.00945 13.0577 3.62157 13.9131 4.44577 14.5266C5.26995 15.14 6.2651 15.4809 7.29235 15.5015C5.5484 16.8714 3.39418 17.6144 1.17657 17.6109C0.783285 17.6103 0.390399 17.5862 0 17.5387C2.25286 18.984 4.87353 19.7516 7.55015 19.7502Z" fill="white"/>
</svg>
